- 
http://www.Speed.Cd 
       
http://www.Speed.Cd       the fast  and The Hottest Private Tracker on the net

Please Seed back to make the speed Faster!!!

and don't forget to visit      ...... http://www.Speed.Cd..........
-[align=center][IMG]http://img220.imageshack.us/img220/6996/elephantwhitecover.jpg[/IMG]

** ** ** ** ** ** ** ** ** 

IMDB........ http://www.imdb.com/title/tt1578882/

** ** ** ** ** ** ** ** ** 

[b]PLOT[/b]

An assassin is hired by a businessman to avenge the murder of his daughter by white slave traders in Thailand. 

** ** ** ** ** ** ** ** ** 

[b]AVI Information[/b]

Complete name : Elephant.White.2011.480.BRRip Xvid AC3 - PRESTiGE.avi 
Format : AVI 
Format/Info : Audio Video Interleave 
Format profile : OpenDML 
Format settings : rec 
File size : 1.87 GiB 
Duration : 1h 31mn 
Overall bit rate : 2 925 Kbps 
Source: Elephant.White.2011.P.BDRip.720p.
Encoder: Twisted

[b]Video Stream[/b]

ID : 0 
Format : MPEG-4 Visual 
Format profile : Advanced Simple@L5 
Format settings, BVOP : 2 
Format settings, QPel : No 
Format settings, GMC : No warppoints 
Format settings, Matrix : Default (MPEG) 
Codec ID : XVID 
Codec ID/Hint : XviD 
Duration : 1h 31mn 
Bit rate : 2 471 Kbps 
Width : 720 pixels 
Height : 304 pixels 
Display aspect ratio : 2.35:1 
Frame rate : 23.976 fps 
Color space : YUV 
Chroma subsampling : 4:2:0 
Bit depth : 8 bits 
Scan type : Progressive 
Compression mode : Lossy 
Bits/(Pixel*Frame) : 0.471 
Stream size : 1.58 GiB (84%) 
Writing library : XviD 1.2.1 (UTC 2008-12-04) 


[b]Audio Stream[/b]

ID : 1 
Format : AC-3 
Format/Info : Audio Coding 3 
Mode extension : CM (complete main) 
Codec ID : 2000 
Duration : 1h 31mn 
Bit rate mode : Constant 
Bit rate : 448 Kbps 
Channel(s) : 6 channels 
Channel positions : Front: L C R, Side: L R, LFE 
Sampling rate : 48.0 KHz 
Bit depth : 16 bits 
Compression mode : Lossy 
Stream size : 293 MiB (15%) 
Alignment : Aligned on interleaves 
Interleave, duration : 64 ms (1.53 video frames) 
Interleave, preload duration : 192 ms 
Title : T3_Audio - 5.1 channels_new 


** ** ** ** ** ** ** ** ** 

[b]Screens[/b]

[IMG]http://img25.imageshack.us/img25/3857/pic11o.png[/IMG]
[IMG]http://img845.imageshack.us/img845/8926/pic12j.png[/IMG]
[IMG]http://img713.imageshack.us/img713/516/pic13m.png[/IMG]
[IMG]http://img829.imageshack.us/img829/7079/pic14i.png[/IMG]
[IMG]http://img860.imageshack.us/img860/3494/pic15.png[/IMG]
[IMG]http://img849.imageshack.us/img849/9162/pic16t.png[/IMG]
[IMG]http://img841.imageshack.us/img841/8075/pic17e.png[/IMG]
[IMG]http://img97.imageshack.us/img97/5938/pic18e.png[/IMG]

** ** ** ** ** ** ** ** **

Note

PRESTiGE - IS LOOKING FOR?: CAMMER'S, AUDIO SUPPLIERS, SYNCER'S, RETAIL SUPPLIER'S, SILVER'S, SCREENER'S, LINE CAPPER'S

ENCODER'S - ANYTHING AT ALL EMAIL US AT..... prestige@twistedtorrents.com

** ** ** ** ** ** ** ** **

Greets Are Flying Out To:

[b]BmB,HiTM4N,BIGGUY,Demedic,DiLLoN,Imagine,CTFX,Jammo
Encoders Past And Present[/b]

** ** ** ** ** ** ** ** ** 

PRESTiGE is the level of respect at which one is regarded by others....RIzE Above Or Sink Below

[IMG]http://leetleech.org/images/83508160282003703104.png[/IMG][/align]